<svg id="Layer_1" enable-background="new 0 0 512 512" height="512" viewBox="0 0 512 512" width="512" xmlns="http://www.w3.org/2000/svg"><g><g><g><path d="m251.774 373.405h54.02v-179.568c0-4.39.935-8.729 2.743-12.729l17.231-38.122c2.479-5.484 3.507-11.514 2.985-17.509l-2.888-33.179-82.64-35.075-60.201 28.64 63.25 101.555z" fill="#ffcebf"/><path d="m328.753 125.476-2.888-33.179h-30.905l2.888 33.179c.522 5.995-.506 12.025-2.985 17.509l-17.231 38.122c-1.808 4.001-2.743 8.34-2.743 12.729v179.568h30.905v-179.567c0-4.39.935-8.729 2.743-12.729l17.231-38.122c2.479-5.485 3.507-11.514 2.985-17.51z" fill="#ffb09e"/><g><path d="m206.69 49.408c-7.166-6.038-8.081-16.742-2.043-23.909l16.399-19.464c6.038-7.166 16.742-8.081 23.909-2.043 7.166 6.038 8.081 16.742 2.043 23.909l-16.399 19.464c-6.038 7.166-16.743 8.081-23.909 2.043z" fill="#ffcebf"/><path d="m244.955 3.992c-2.786-2.347-6.107-3.63-9.48-3.917.369 4.325-.912 8.791-3.93 12.373l-16.399 19.464c-3.691 4.381-9.125 6.412-14.429 5.96.369 4.328 2.389 8.516 5.973 11.535 7.166 6.038 17.871 5.124 23.909-2.043l16.399-19.464c6.038-7.166 5.124-17.87-2.043-23.908z" fill="#ffb09e"/><path d="m232.642 71.274c-7.166-6.038-8.081-16.742-2.043-23.909l16.399-19.464c6.038-7.166 16.742-8.081 23.909-2.043 7.166 6.038 8.081 16.742 2.043 23.909l-16.399 19.464c-6.039 7.166-16.743 8.081-23.909 2.043z" fill="#ffcebf"/><path d="m270.907 25.858c-2.786-2.347-6.107-3.63-9.479-3.918.369 4.325-.912 8.791-3.93 12.373l-16.399 19.464c-3.691 4.38-9.125 6.411-14.429 5.96.369 4.328 2.389 8.515 5.973 11.535 7.166 6.038 17.871 5.123 23.909-2.043l16.399-19.464c6.037-7.164 5.122-17.869-2.044-23.907z" fill="#ffb09e"/><path d="m258.594 93.139c-7.166-6.038-8.081-16.742-2.043-23.909l16.399-19.464c6.038-7.166 16.742-8.081 23.909-2.043 7.166 6.038 8.081 16.742 2.043 23.909l-16.399 19.464c-6.039 7.167-16.743 8.082-23.909 2.043z" fill="#ffcebf"/><path d="m296.859 47.724c-2.786-2.347-6.106-3.63-9.479-3.917.369 4.325-.912 8.791-3.93 12.373l-16.4 19.464c-3.691 4.381-9.125 6.412-14.429 5.96.369 4.328 2.389 8.516 5.973 11.535 7.166 6.038 17.871 5.124 23.909-2.043l16.399-19.464c6.038-7.166 5.123-17.87-2.043-23.908z" fill="#ffb09e"/><path d="m284.545 115.005c-7.166-6.038-8.081-16.742-2.043-23.909l16.399-19.464c6.038-7.166 16.742-8.081 23.909-2.043 7.166 6.038 8.081 16.742 2.043 23.909l-16.399 19.464c-6.038 7.167-16.742 8.081-23.909 2.043z" fill="#ffcebf"/><path d="m322.811 69.59c-2.786-2.347-6.106-3.63-9.479-3.918.369 4.325-.912 8.791-3.93 12.373l-16.401 19.465c-3.691 4.381-9.125 6.412-14.429 5.96.369 4.328 2.389 8.516 5.973 11.536 7.166 6.038 17.871 5.123 23.909-2.043l16.399-19.464c6.039-7.167 5.124-17.871-2.042-23.909z" fill="#ffb09e"/></g><path d="m193.881 107.012 2.785-13.608 30.695 4.986c8.409 2.924 17.639-1.212 21.054-9.434 3.468-8.349-.287-17.946-8.499-21.726l-40.709-18.739c-9.371-4.314-20.487-1.136-26.162 7.479l-23.438 35.577z" fill="#ffb09e"/><path d="m258.678 134.486-62.012-41.082c-1.502-.995-1.838-3.058-.729-4.478l3.85-4.932c3.908-5.006 10.568-6.969 16.567-4.883l11.007 3.827c8.409 2.924 17.639-1.212 21.054-9.434 3.468-8.349-.287-17.946-8.499-21.726l-40.709-18.739c-9.371-4.314-20.487-1.136-26.162 7.479l-23.438 35.577c-7.027 10.666-6.68 24.577.87 34.879l49.869 68.047c3.884 5.299 5.977 11.698 5.977 18.269v176.116h45.452z" fill="#ffcebf"/></g><path d="m320.416 341.125h-128.716v-98.759c0-5.69 4.612-10.302 10.302-10.302h108.113c5.69 0 10.302 4.612 10.302 10.302v98.759z" fill="#fd9468"/><path d="m310.114 232.064h-30.905c5.69 0 10.302 4.613 10.302 10.302v98.759h30.905v-98.759c0-5.689-4.612-10.302-10.302-10.302z" fill="#fe7d43"/><circle cx="287.232" cy="260.623" fill="#355f7f" r="7.726"/></g><g><path d="m47.213 512c0-115.31 93.477-208.787 208.787-208.787s208.787 93.477 208.787 208.787h-52.833l-155.895-15-156.012 15z" fill="#6c7fd8"/><path d="m256 303.213c-5.198 0-10.35.197-15.453.57 108.093 7.909 193.334 98.105 193.334 208.217h30.905c.001-115.31-93.476-208.787-208.786-208.787z" fill="#4f66d0"/><path d="m411.954 512c0-9.568 6.682-17.571 15.633-19.608 1.701-.387 2.872-1.965 2.643-3.694-2.017-15.23-5.983-29.843-11.641-43.583-.674-1.637-2.474-2.459-4.165-1.934-8.776 2.724-18.575-.865-23.363-9.158-4.783-8.284-3-18.554 3.731-24.793 1.299-1.204 1.484-3.174.401-4.575-9.211-11.926-19.92-22.635-31.846-31.846-1.402-1.082-3.371-.898-4.575.401-6.24 6.731-16.509 8.514-24.794 3.731-8.293-4.788-11.882-14.587-9.158-23.363.525-1.691-.297-3.491-1.934-4.165-13.74-5.658-28.353-9.624-43.583-11.641-1.73-.229-3.307.942-3.694 2.643-2.037 8.951-10.04 15.632-19.607 15.632-9.568 0-17.571-6.681-19.607-15.632-.387-1.701-1.965-2.872-3.694-2.643-15.23 2.017-29.843 5.983-43.583 11.641-1.637.674-2.459 2.474-1.934 4.165 2.724 8.776-.865 18.575-9.158 23.363-8.285 4.783-18.554 3-24.794-3.731-1.204-1.299-3.174-1.484-4.575-.401-11.926 9.211-22.635 19.92-31.846 31.846-1.082 1.402-.898 3.371.401 4.575 6.73 6.24 8.514 16.509 3.731 24.793-4.788 8.293-14.587 11.882-23.363 9.158-1.691-.525-3.491.297-4.165 1.934-5.658 13.74-9.624 28.353-11.641 43.583-.229 1.73.942 3.307 2.643 3.694 8.951 2.037 15.632 10.04 15.632 19.608z" fill="#fff"/><g fill="#6c7fd8"><path d="m217.962 340.187c-1.105-4.122-5.343-6.564-9.463-5.463-4.122 1.105-6.568 5.341-5.464 9.463l35.039 130.768c.925 3.452 4.047 5.728 7.458 5.728.662 0 1.335-.086 2.005-.265 4.122-1.105 6.568-5.341 5.464-9.463z"/><path d="m137.177 382.25c-3.017-3.017-7.909-3.017-10.927 0s-3.018 7.909 0 10.927l95.703 95.703c1.509 1.509 3.486 2.263 5.463 2.263s3.955-.755 5.463-2.263c3.018-3.017 3.018-7.909 0-10.927z"/><path d="m218.954 494.074-130.768-35.039c-4.117-1.101-8.358 1.342-9.463 5.464-1.104 4.122 1.342 8.358 5.464 9.463l130.768 35.039c.67.179 1.342.265 2.005.265 3.411 0 6.533-2.277 7.458-5.729 1.104-4.122-1.343-8.358-5.464-9.463z"/><path d="m433.277 464.499c-1.104-4.122-5.344-6.565-9.463-5.464l-130.768 35.039c-4.121 1.105-6.567 5.341-5.463 9.463.925 3.452 4.047 5.729 7.458 5.729.662 0 1.335-.086 2.005-.265l130.768-35.039c4.121-1.105 6.567-5.341 5.463-9.463z"/><path d="m385.75 393.177c3.018-3.017 3.018-7.909 0-10.927-3.017-3.017-7.909-3.017-10.927 0l-95.703 95.703c-3.018 3.017-3.018 7.909 0 10.927 1.509 1.509 3.486 2.263 5.463 2.263s3.955-.755 5.463-2.263z"/><path d="m303.501 334.724c-4.115-1.102-8.358 1.341-9.463 5.464l-35.039 130.767c-1.104 4.122 1.342 8.358 5.464 9.463.67.18 1.342.265 2.005.265 3.411 0 6.533-2.277 7.458-5.728l35.039-130.767c1.104-4.123-1.342-8.36-5.464-9.464z"/></g><path d="m215.577 512c0-22.325 18.098-40.423 40.423-40.423s40.423 18.098 40.423 40.423z" fill="#6c7fd8"/><path d="m256 471.577c-5.474 0-10.691 1.094-15.453 3.065 14.657 6.069 24.971 20.507 24.971 37.358h30.905c0-22.325-18.098-40.423-40.423-40.423z" fill="#4f66d0"/></g></g></svg>